<?xml version="1.0" encoding="utf-8"?>
<!-- Generator: Adobe Illustrator 22.0.0, SVG Export Plug-In . SVG Version: 6.00 Build 0)  -->
<svg version="1.1" id="svg" xmlns="http://www.w3.org/2000/svg" xmlns:xlink="http://www.w3.org/1999/xlink" x="0px" y="0px"
	 viewBox="0 0 400 151.2" style="enable-background:new 0 0 400 151.2;" xml:space="preserve">
<style type="text/css">
	.st0{fill:#B4B4B4;}
	.st1{fill:#CC041C;}
	.st2{fill:#040404;}
</style>
<g id="svgg">
	<path id="path0" class="st0" d="M281,29.5c0,2.2,0,5.2,0.1,6.8l0.1,2.8l6.9,0l6.9,0v-6.7v-6.7l-7,0l-7,0V29.5 M307.2,33.2V41l-17,0
		l-17,0v5.5v5.5l4,0l4,0v28.7v28.7h7.8h7.8V80.9V52.2h5.2h5.2l0,9c0.1,27.8,0.3,38,0.8,38c0.1,0,0.1,0.1,0.1,0.3
		c0,0.2,0.2,0.7,0.4,1.3s0.5,1.1,0.5,1.3c0.1,0.2,0.2,0.3,0.2,0.3c0.1,0,0.2,0.2,0.2,0.5c0.1,0.3,0.2,0.5,0.3,0.5
		c0.1,0,0.2,0.1,0.3,0.3c0.1,0.2,0.3,0.5,0.5,0.7c0.2,0.2,0.4,0.4,0.4,0.5c0,0.2,1.1,1.2,1.2,1.2c0.1,0,0.3,0.2,0.5,0.4
		c0.2,0.2,0.5,0.4,0.6,0.4s0.2,0.1,0.2,0.1s0.4,0.3,0.9,0.5s0.9,0.5,0.9,0.5c0,0.1,0.1,0.1,0.2,0.1c0.1,0,0.5,0.2,0.9,0.3
		c0.4,0.2,0.9,0.3,1.1,0.3c0.2,0,0.5,0.1,0.6,0.2c0.1,0.1,0.9,0.2,1.7,0.3c0.8,0.1,1.5,0.2,1.5,0.3c0,0.2,18.2,0.2,18.6,0
		c0.2-0.1,0.3-0.8,0.3-6.8V96l-6.9,0.1c-5.4,0-6.9,0-6.9-0.2c0-0.1-0.2-0.2-0.4-0.2s-0.3-0.1-0.3-0.2s-0.1-0.1-0.1-0.1
		c-0.1,0-0.3,0-0.5-0.2c-0.3-0.2-0.3-0.5-0.4-21.5l0-21.2h7.6h7.6v-5.8v-5.8H332h-7.8v-7.7v-7.7h-8.5h-8.5V33.2"/>
	<path id="path1" class="st1" d="M344.7,42.8c0,16.3-0.1,15,1.2,14.5c0.3-0.1,1.1-0.4,1.8-0.6c0.7-0.2,1.4-0.4,1.5-0.5
		c0.1-0.1,0.5-0.2,0.8-0.3c0.3-0.1,0.7-0.2,0.7-0.2c0.3-0.2,1.8-0.7,2.1-0.7c0.1,0,0.5-0.1,0.7-0.3c0.3-0.1,0.6-0.2,0.8-0.2
		c0.2,0,0.3-0.1,0.3-0.2c0-0.1,0.3-0.2,0.8-0.3c0.4-0.1,0.8-0.2,0.8-0.2c0-0.1,0.3-0.2,0.8-0.2c0.4-0.1,0.8-0.2,0.8-0.2
		s0.3-0.2,0.8-0.2c0.4-0.1,0.8-0.2,0.8-0.2s0.3-0.2,0.8-0.2c0.4-0.1,0.8-0.2,0.8-0.2s0.3-0.2,0.7-0.2c0.4-0.1,0.8-0.2,0.8-0.3
		c0-0.1,0.4-0.2,0.8-0.3c0.4-0.1,0.7-0.2,0.7-0.2c0-0.1,0.4-0.2,0.7-0.2c0.3-0.1,0.7-0.2,0.9-0.3c0.5-0.3,2.3-0.8,2.7-0.8
		c0.2,0,0.3-0.1,0.3-0.2c0-0.1,0.2-0.2,0.4-0.2s0.4-0.1,0.4-0.2c0-0.1,0.3-0.2,0.8-0.3c0.4-0.1,0.8-0.2,0.8-0.2
		c0-0.1,0.3-0.2,0.8-0.2c0.4-0.1,0.8-0.2,0.8-0.2s0.3-0.2,0.8-0.2c0.4-0.1,0.8-0.2,0.8-0.2c0-0.1,0.3-0.2,0.8-0.2
		c0.4-0.1,0.8-0.2,0.8-0.2c0-0.1,0.3-0.2,0.8-0.2c0.4-0.1,0.8-0.2,0.8-0.2c0-0.1,0.3-0.2,0.7-0.2c0.4-0.1,0.8-0.2,0.8-0.3
		c0-0.1,0.4-0.2,0.8-0.3s0.7-0.2,0.8-0.3c0-0.1,0.4-0.2,0.8-0.3c0.4-0.1,0.7-0.2,0.7-0.2s0.3-0.2,0.8-0.2c0.4-0.1,0.8-0.2,0.8-0.3
		s0.3-0.2,0.8-0.3c0.4-0.1,0.8-0.2,0.8-0.3c0-0.1,0.2-0.1,0.4-0.1s0.4-0.1,0.4-0.2c0-0.1,0.3-0.2,0.8-0.3c0.4-0.1,0.8-0.2,0.8-0.2
		s0.2-0.2,0.4-0.2c0.2,0,0.4-0.2,0.4-0.3c0-0.1-0.2-0.3-0.4-0.3c-0.2,0-0.4-0.1-0.4-0.2s-0.3-0.2-0.6-0.2c-0.3-0.1-0.8-0.2-1-0.4
		c-0.3-0.1-0.6-0.2-0.8-0.2c-0.2,0-0.4-0.1-0.4-0.2c0-0.1-0.3-0.2-0.8-0.3c-0.4-0.1-0.8-0.2-0.8-0.3c0-0.1-0.3-0.2-0.7-0.3
		c-0.4-0.1-0.7-0.2-0.7-0.2c0-0.1-0.3-0.2-0.8-0.2c-0.4-0.1-0.8-0.2-0.8-0.2s-0.3-0.2-0.8-0.2c-0.4-0.1-0.8-0.2-0.8-0.3
		c0-0.1-0.3-0.2-0.7-0.3c-0.4-0.1-0.7-0.2-0.7-0.2c0-0.1-0.3-0.2-0.8-0.2c-0.4-0.1-0.8-0.2-0.8-0.2s-0.3-0.2-0.8-0.2
		c-0.4-0.1-0.8-0.2-0.8-0.2c0-0.1-0.6-0.4-2.2-0.9c-0.7-0.2-1.3-0.4-1.4-0.5c-0.1-0.1-0.3-0.1-0.4-0.1c-0.1,0-0.5-0.1-0.7-0.2
		c-0.3-0.1-0.7-0.3-1-0.4c-0.3-0.1-0.6-0.2-0.7-0.2c0-0.1-0.4-0.2-0.7-0.2s-0.7-0.2-0.7-0.3c0-0.1-0.2-0.2-0.4-0.2
		c-0.2,0-0.7-0.2-1-0.3c-0.4-0.2-0.8-0.3-1-0.3c-0.2,0-0.4-0.1-0.4-0.2c0-0.1-0.3-0.2-0.8-0.3c-0.4-0.1-0.8-0.2-0.8-0.2
		c0-0.1-0.3-0.2-0.7-0.2c-0.4-0.1-0.7-0.2-0.7-0.3s-0.3-0.2-0.8-0.3c-0.4-0.1-0.8-0.2-0.8-0.2c0-0.1-0.5-0.3-1-0.4
		c-0.6-0.2-1.2-0.4-1.5-0.5c-0.2-0.1-0.5-0.2-0.7-0.2c-0.2,0-0.3-0.1-0.4-0.2c-0.1-0.1-0.4-0.2-0.8-0.3c-0.4-0.1-0.7-0.2-0.7-0.2
		s-0.3-0.2-0.7-0.2c-0.4-0.1-0.7-0.2-0.7-0.3s-0.3-0.2-0.7-0.3c-0.4-0.1-0.8-0.2-0.8-0.3c0-0.1-0.4-0.2-0.8-0.3s-0.7-0.2-0.7-0.2
		s-0.3-0.2-0.7-0.2c-0.4-0.1-0.7-0.2-0.7-0.3c0-0.1-0.3-0.2-0.7-0.3c-0.4-0.1-0.7-0.2-0.8-0.3c0-0.1-0.5-0.2-1-0.3l-0.9-0.1
		L344.7,42.8"/>
	<path id="path4" class="st2" d="M195.6,41.2c-0.1,0.1-2.3,0.2-5,0.2c-3.3,0-4.8,0.1-4.9,0.2c-0.1,0.1-0.6,0.2-1.2,0.3
		c-0.6,0.1-1.1,0.2-1.1,0.2c0,0.1-0.4,0.2-0.8,0.2s-0.8,0.2-0.8,0.3c0,0.1-0.3,0.2-0.7,0.3c-0.4,0.1-0.8,0.2-0.8,0.3
		c-0.1,0.1-0.2,0.2-0.4,0.2c-0.2,0-0.3,0.1-0.3,0.2s-0.3,0.2-0.7,0.3c-0.4,0.1-0.7,0.2-0.7,0.2c0,0.1-0.2,0.2-0.5,0.2
		s-0.5,0.2-0.5,0.2s-0.2,0.2-0.5,0.2S176,44.9,176,45c0,0.1-0.1,0.2-0.2,0.2c-0.1,0-0.3,0.1-0.5,0.2c-0.1,0.1-0.4,0.3-0.6,0.4
		c-0.7,0.3-1.1,0.6-1.5,1c-0.2,0.2-0.4,0.4-0.5,0.4c-0.2,0-1.1,0.8-3.1,2.7l-1.8,1.8l-0.2-0.4c-0.2-0.3-0.2-1.5-0.2-5.2v-4.7
		l-28.1,0.1c-20.3,0-28.1,0.1-28.2,0.2c-0.1,0.1-1.2,0.2-3.1,0.3c-1.6,0.1-3,0.2-3.1,0.2c0,0.1-0.7,0.2-1.5,0.2
		c-0.8,0.1-1.5,0.2-1.7,0.3c-0.1,0.1-0.7,0.2-1.3,0.3c-0.6,0.1-1,0.2-1,0.3s-0.2,0.2-0.5,0.2c-0.3,0-0.5,0.1-0.6,0.2
		c-0.1,0.1-0.4,0.2-0.8,0.3c-0.4,0.1-0.7,0.2-0.7,0.2c0,0.1-0.3,0.2-0.8,0.2c-0.4,0.1-0.8,0.2-0.8,0.3c0,0.1-0.3,0.2-0.6,0.2
		C94.3,44.8,94,44.9,94,45s-0.3,0.2-0.6,0.2c-0.3,0.1-0.6,0.2-0.6,0.2c0,0.1-0.2,0.2-0.5,0.3c-0.5,0.2-1.1,0.6-1.2,0.7
		c0,0.1-0.3,0.2-0.5,0.2c-0.2,0.1-0.4,0.2-0.4,0.3c0,0.1-0.1,0.2-0.2,0.2c-0.1,0-0.4,0.2-0.6,0.5c-0.2,0.3-0.5,0.5-0.6,0.5
		c-0.2,0-2.1,1.8-2.1,2.1c0,0.1-0.2,0.4-0.5,0.6c-0.3,0.2-0.5,0.5-0.5,0.6c0,0.1-0.1,0.2-0.2,0.2c-0.1,0-0.2,0.2-0.3,0.4
		c-0.1,0.2-0.2,0.4-0.2,0.4c-0.1,0-0.2,0.2-0.2,0.5c-0.1,0.3-0.2,0.5-0.2,0.5s-0.2,0.2-0.2,0.5c-0.1,0.3-0.2,0.5-0.2,0.5
		c-0.1,0-0.2,0.3-0.2,0.7c-0.1,0.4-0.2,0.7-0.2,0.7c-0.2,0-0.7,1.8-0.7,2.5c0,0.3-0.1,0.5-0.2,0.6c-0.3,0.1-0.3,5.1,0,5.3
		c0.1,0.1,0.2,0.4,0.3,0.8c0.1,0.4,0.2,0.7,0.3,0.7c0.1,0,0.2,0.2,0.2,0.4c0,0.2,0.1,0.4,0.2,0.4c0.1,0.1,0.2,0.3,0.3,0.6
		s0.2,0.5,0.2,0.5s0.2,0.2,0.2,0.5c0.1,0.3,0.2,0.5,0.3,0.5s0.2,0.1,0.2,0.3c0,0.1,0.1,0.3,0.2,0.4c0.1,0.1,0.2,0.2,0.2,0.3
		c0,0.1,0.2,0.4,0.5,0.7s0.5,0.6,0.5,0.6c0,0.1,0.8,0.9,2.2,2.1c0.2,0.2,0.6,0.4,0.8,0.5c0.2,0.1,0.4,0.2,0.4,0.3
		c0,0.1,0.1,0.2,0.3,0.2s0.3,0.1,0.3,0.2c0.1,0.1,0.3,0.3,0.5,0.3c0.2,0.1,0.4,0.2,0.4,0.3c0,0.1,0.2,0.2,0.5,0.3
		c0.3,0.1,0.5,0.2,0.5,0.2c0,0.1,0.2,0.2,0.5,0.2c0.3,0.1,0.5,0.2,0.5,0.2c0.2,0.2,1.2,0.7,1.5,0.7c0.2,0,0.3,0.1,0.3,0.2
		c0,0.1,0.3,0.2,0.6,0.3c0.3,0.1,0.6,0.2,0.6,0.2s0.3,0.2,0.7,0.2c0.4,0.1,0.7,0.2,0.7,0.3s0.3,0.2,0.8,0.3c0.4,0.1,0.8,0.2,0.8,0.2
		c0,0.1,0.4,0.2,0.9,0.3c0.5,0.1,0.9,0.2,0.9,0.2c0,0.1,0.4,0.2,0.8,0.2c0.5,0.1,0.8,0.2,0.8,0.3c0,0.1,0.4,0.2,0.9,0.3
		c0.5,0.1,0.9,0.2,0.9,0.2c0,0.1,0.5,0.2,1.2,0.2c0.6,0.1,1.2,0.2,1.2,0.3c0,0.1,0.5,0.2,1.1,0.3c0.6,0.1,1.1,0.2,1.2,0.3
		c0.1,0.1,0.3,0.2,0.7,0.2s0.6,0.1,0.7,0.2c0.1,0.1,0.7,0.2,1.4,0.3c0.7,0.1,1.3,0.2,1.3,0.2s0.7,0.2,1.5,0.2
		c0.8,0.1,1.5,0.2,1.5,0.3c0,0.1,0.7,0.2,1.6,0.3c0.9,0.1,1.7,0.2,1.8,0.3c0.1,0.1,1.1,0.2,2.2,0.3c1.1,0.1,2,0.2,2,0.2
		s0.4,0.2,0.9,0.2c0.5,0.1,0.9,0.2,0.9,0.3c0,0.1,0.3,0.2,0.6,0.2c0.3,0.1,0.6,0.2,0.6,0.3c0,0.1,0.2,0.2,0.3,0.3
		c0.4,0.1,2.2,1.9,2.2,2.2c0,0.1,0.1,0.2,0.2,0.2c0.1,0,0.2,0.2,0.3,0.5c0.1,0.3,0.2,0.5,0.3,0.5c0.1,0,0.2,0.2,0.2,0.4
		c0,0.2,0.1,0.4,0.2,0.4c0.1,0,0.2,0.7,0.2,1.7s-0.1,1.7-0.2,1.7c-0.1,0-0.2,0.2-0.2,0.5s-0.1,0.5-0.2,0.5c-0.1,0-0.2,0.2-0.3,0.5
		c-0.1,0.3-0.2,0.5-0.3,0.5c-0.1,0-0.2,0.1-0.2,0.2c0,0.4-1.6,2.3-2,2.3c-0.1,0-0.2,0.1-0.2,0.2c0,0.1-0.2,0.2-0.4,0.3
		c-0.2,0.1-0.4,0.2-0.4,0.2c0,0.1-0.2,0.2-0.5,0.2c-0.3,0.1-0.5,0.2-0.6,0.3s-0.7,0.2-1.5,0.3c-0.8,0.1-1.4,0.2-1.5,0.2
		c0,0.1-1.3,0.2-2.7,0.2c-1.4,0.1-2.6,0.2-2.6,0.3c0,0.1-1.2,0.1-2.7,0.1c-1.5,0-2.7-0.1-2.7-0.1c0-0.1-0.9-0.2-2-0.2
		c-1.1-0.1-2.1-0.2-2.1-0.3c-0.1-0.1-0.6-0.2-1.2-0.3s-1.1-0.2-1.1-0.3c0-0.1-0.3-0.2-0.8-0.2c-0.4-0.1-0.8-0.2-0.8-0.3
		c0-0.1-0.1-0.1-0.3-0.1c-0.2,0-0.5-0.1-0.7-0.2c-0.2-0.1-0.7-0.3-1-0.3c-0.3-0.1-0.5-0.2-0.5-0.3s-0.1-0.2-0.2-0.2
		s-0.2-0.1-0.2-0.1s-0.2-0.2-0.4-0.3c-0.2-0.1-0.4-0.2-0.4-0.3c0-0.1-0.1-0.2-0.2-0.2c-0.2,0-1.1-0.6-1.6-1.1
		c-0.2-0.2-0.4-0.4-0.5-0.4c-0.2,0-0.9-0.7-0.9-0.9c0-0.1-0.2-0.3-0.4-0.5c-0.4-0.4-1.1-1.4-1.1-1.5c0-0.1-0.1-0.3-0.3-0.6
		s-0.4-0.7-0.4-0.9c-0.1-0.2-0.2-0.4-0.3-0.4s-0.1-0.2-0.1-0.5v-0.5H81.5H69.2l-1.5,1.4c-0.8,0.8-1.5,1.4-1.5,1.4
		c0,0-0.6,0.5-1.2,1.2c-0.6,0.6-1.2,1.2-1.3,1.2c-0.1,0-0.4,0.2-0.7,0.5s-0.6,0.5-0.6,0.5c-0.1,0-0.3,0.2-0.4,0.3s-0.4,0.3-0.5,0.3
		c-0.1,0-0.2,0.1-0.2,0.1c0,0.1-0.4,0.4-0.9,0.7c-0.5,0.3-0.9,0.6-0.9,0.7c0,0.1-0.2,0.2-0.5,0.2c-0.3,0.1-0.5,0.2-0.5,0.2
		s-0.2,0.2-0.5,0.2c-0.3,0.1-0.5,0.2-0.5,0.3c0,0.1-0.3,0.2-0.7,0.3c-0.4,0.1-0.7,0.2-0.7,0.2c0,0.1-0.3,0.2-0.8,0.2
		c-0.4,0.1-0.8,0.2-0.8,0.2s-0.5,0.2-1,0.2c-0.6,0.1-1.1,0.2-1.3,0.3c-0.3,0.3-10,0.3-10.1,0c-0.1-0.1-0.6-0.2-1.1-0.3
		c-0.5-0.1-1-0.2-1-0.3c0-0.1-0.4-0.2-0.9-0.2c-0.5-0.1-0.9-0.2-0.9-0.3s-0.3-0.2-0.6-0.3C37.3,97,37,96.9,37,96.8
		c0-0.1-0.2-0.2-0.5-0.2c-0.3-0.1-0.5-0.2-0.5-0.2c0-0.1-0.2-0.2-0.5-0.2C35.3,96,35,95.9,35,95.9c-0.1-0.2-0.7-0.5-1-0.6
		c-0.2-0.1-0.3-0.2-0.3-0.2c0-0.1-0.1-0.1-0.3-0.1s-0.4-0.2-0.5-0.3c-0.2-0.2-0.4-0.3-0.5-0.3c-0.1,0-0.2-0.1-0.2-0.1
		c0-0.1-0.3-0.3-0.6-0.5c-0.7-0.5-3.2-2.9-3.2-3.1c0-0.1-0.2-0.3-0.5-0.6c-0.3-0.3-0.5-0.6-0.5-0.7c0-0.1-0.1-0.2-0.2-0.2
		s-0.2-0.2-0.3-0.4c-0.1-0.2-0.2-0.4-0.3-0.5c-0.1,0-0.2-0.2-0.2-0.3c0-0.1-0.1-0.3-0.2-0.3s-0.2-0.2-0.3-0.5
		c-0.1-0.3-0.2-0.5-0.2-0.5s-0.2-0.2-0.2-0.5c-0.1-0.3-0.2-0.5-0.3-0.5c-0.1,0-0.2-0.1-0.2-0.3c0-0.2-0.1-0.5-0.2-0.6
		c-0.1-0.2-0.3-0.7-0.4-1c-0.1-0.4-0.2-0.7-0.2-0.7c-0.1,0-0.2-0.4-0.3-0.8c-0.1-0.4-0.2-0.8-0.2-0.9c-0.1,0-0.2-0.5-0.2-1l-0.1-0.9
		h12.9c8.5,0,12.9-0.1,12.9-0.2s5.3-0.2,15.7-0.2h15.7v-0.9c0-0.5-0.1-0.9-0.1-1c-0.1,0-0.2-1-0.3-2.1c-0.1-1.1-0.2-2.1-0.3-2.2
		c-0.1-0.1-0.2-0.5-0.2-0.9c0-0.4-0.1-0.7-0.2-0.7c-0.1,0-0.2-0.5-0.3-1.1c-0.1-0.6-0.2-1.1-0.3-1.2c-0.1,0-0.2-0.5-0.3-0.9
		c-0.1-0.5-0.2-0.8-0.2-0.8c-0.1,0-0.2-0.3-0.2-0.8c-0.1-0.4-0.2-0.8-0.2-0.8c-0.1,0-0.2-0.3-0.2-0.8c-0.1-0.4-0.2-0.8-0.3-0.8
		c-0.1,0-0.2-0.3-0.3-0.7c-0.1-0.4-0.2-0.7-0.3-0.7c-0.1,0-0.2-0.2-0.2-0.5s-0.2-0.5-0.2-0.5s-0.2-0.2-0.2-0.5s-0.2-0.5-0.2-0.5
		s-0.2-0.2-0.2-0.5s-0.2-0.5-0.2-0.5c-0.1,0-0.3-0.4-0.5-0.9s-0.5-0.9-0.5-0.9c-0.1,0-0.1-0.1-0.1-0.2s-0.1-0.3-0.1-0.3
		c-0.2-0.1-0.9-1.1-0.9-1.2c0-0.1-0.2-0.3-0.4-0.5c-0.2-0.2-0.4-0.5-0.5-0.7c-0.1-0.2-0.2-0.4-0.3-0.4c-0.1,0-0.2-0.1-0.3-0.3
		c-0.1-0.2-0.3-0.5-0.5-0.8c-0.4-0.5-0.8-0.9-3.3-3.3c-0.5-0.5-1-1-1.1-1c-0.1,0-0.3-0.2-0.5-0.4c-0.4-0.4-1.3-1.1-1.6-1.1
		c-0.1,0-0.2-0.1-0.3-0.2c-0.1-0.1-0.2-0.2-0.4-0.2c-0.2,0-0.4-0.1-0.4-0.2c-0.1-0.1-0.2-0.2-0.4-0.2s-0.3-0.1-0.3-0.2
		s-0.2-0.2-0.4-0.3c-0.2-0.1-0.4-0.2-0.4-0.2c0-0.1-0.2-0.2-0.5-0.2s-0.5-0.2-0.5-0.2s-0.2-0.2-0.5-0.2s-0.5-0.2-0.5-0.2
		s-0.2-0.2-0.5-0.2s-0.5-0.2-0.5-0.3c0-0.1-0.3-0.2-0.7-0.3C58.3,44.2,58,44.1,58,44c0-0.1-0.3-0.2-0.6-0.2
		c-0.3-0.1-0.6-0.2-0.6-0.3c0-0.1-0.2-0.2-0.4-0.2c-0.2,0-0.4-0.1-0.5-0.2c-0.1-0.1-0.5-0.2-0.9-0.3s-0.9-0.2-0.9-0.3
		c0-0.1-0.5-0.2-1-0.3c-0.5-0.1-1-0.2-1.1-0.3C51.8,42.1,51,42,50,41.9s-1.7-0.2-1.7-0.3c0-0.1-1.9-0.1-4.2-0.1
		c-2.3,0-4.2,0.1-4.2,0.1c0,0.1-0.8,0.2-1.8,0.3c-1,0.1-1.9,0.2-2,0.2c-0.1,0.1-0.7,0.2-1.3,0.3c-1.7,0.3-3,0.6-3.1,0.8
		c-0.1,0.1-0.3,0.1-0.4,0.1s-0.3,0.1-0.3,0.1c0,0.1-0.3,0.2-0.8,0.3c-0.4,0.1-0.8,0.2-0.8,0.3s-0.3,0.2-0.7,0.3
		c-0.4,0.1-0.7,0.2-0.7,0.2c0,0.1-0.2,0.2-0.5,0.2s-0.5,0.2-0.5,0.2s-0.2,0.2-0.5,0.2s-0.5,0.2-0.5,0.2s-0.2,0.2-0.5,0.2
		s-0.5,0.2-0.5,0.2s-0.2,0.2-0.5,0.2s-0.5,0.2-0.5,0.3s-0.2,0.2-0.4,0.3c-0.2,0.1-0.4,0.2-0.5,0.3c0,0.1-0.2,0.2-0.3,0.2
		c-0.1,0-0.3,0.1-0.3,0.1c0,0.1-0.3,0.3-0.7,0.5s-0.6,0.5-0.6,0.5c0,0.1-0.1,0.2-0.2,0.2c-0.1,0-0.4,0.2-0.7,0.5
		c-0.3,0.3-0.6,0.5-0.6,0.5c-0.3,0-4.4,4.3-4.4,4.7c0,0.1-0.1,0.2-0.1,0.2c-0.1,0-0.3,0.3-0.5,0.7c-0.2,0.4-0.5,0.7-0.5,0.7
		c-0.1,0-0.1,0.1-0.1,0.3c0,0.1-0.1,0.3-0.2,0.3c-0.1,0.1-0.3,0.3-0.3,0.5c-0.1,0.2-0.2,0.4-0.3,0.4s-0.2,0.2-0.3,0.5
		s-0.2,0.5-0.2,0.5s-0.2,0.2-0.2,0.5s-0.2,0.5-0.2,0.5s-0.2,0.2-0.2,0.5s-0.2,0.5-0.3,0.5c-0.1,0-0.2,0.1-0.2,0.2
		c0,0.1-0.1,0.2-0.1,0.2c-0.1,0-0.3,0.5-0.5,1.1c-0.2,0.6-0.5,1.2-0.5,1.3c-0.1,0.1-0.2,0.4-0.2,0.8c-0.1,0.3-0.2,0.6-0.2,0.6
		c-0.1,0-0.2,0.4-0.3,0.9c-0.1,0.5-0.2,0.9-0.3,1c-0.1,0.1-0.2,0.5-0.3,1c-0.1,0.5-0.2,0.9-0.2,1c-0.1,0-0.2,0.6-0.2,1.2
		C8.8,70.4,8.7,71,8.6,71c-0.3,0.2-0.3,9.9,0,10.1c0.1,0.1,0.2,0.7,0.3,1.5S9.1,84,9.2,84s0.2,0.4,0.2,1s0.2,1,0.2,1
		c0.1,0,0.2,0.3,0.2,0.8c0.1,0.4,0.2,0.8,0.2,0.8c0.1,0,0.2,0.3,0.2,0.7c0.1,0.4,0.2,0.7,0.3,0.7s0.2,0.3,0.3,0.6
		c0.1,0.3,0.2,0.6,0.3,0.6s0.2,0.2,0.3,0.5c0.1,0.6,0.4,1.1,0.7,1.4c0.1,0.1,0.2,0.3,0.2,0.5c0,0.1,0.1,0.2,0.2,0.2
		c0.1,0,0.2,0.2,0.3,0.5c0.1,0.3,0.2,0.5,0.3,0.6c0.1,0,0.2,0.2,0.2,0.3s0.1,0.3,0.2,0.3s0.2,0.1,0.2,0.3s0.2,0.4,0.3,0.5
		c0.2,0.2,0.3,0.4,0.3,0.5c0,0.1,0.1,0.2,0.2,0.2c0.1,0,0.2,0.2,0.3,0.4c0.1,0.2,0.3,0.6,0.6,0.9c0.9,1.1,4,4.1,4.1,4.1
		c0.1,0,0.2,0.1,0.4,0.3c0.4,0.4,1.8,1.5,2,1.5c0.1,0,0.2,0.1,0.2,0.2c0,0.1,0.2,0.2,0.4,0.3c0.2,0.1,0.4,0.2,0.5,0.3
		c0,0.1,0.2,0.2,0.3,0.2c0.1,0,0.3,0.1,0.3,0.2c0,0.1,0.2,0.2,0.4,0.3c0.2,0.1,0.4,0.2,0.5,0.2c0.1,0.2,0.7,0.5,1.2,0.7
		c0.3,0.1,0.5,0.3,0.5,0.3c0,0.1,0.1,0.1,0.2,0.1c0.1,0,0.5,0.2,0.9,0.3c0.4,0.2,0.8,0.3,1,0.3c0.2,0,0.3,0.1,0.3,0.1
		c0,0.1,0.8,0.5,1.1,0.5c0.1,0,0.5,0.2,0.8,0.3s0.8,0.3,1,0.3c0.2,0,0.4,0.1,0.4,0.2s0.4,0.2,0.9,0.3c0.5,0.1,0.9,0.2,0.9,0.2
		s0.5,0.2,1,0.2s1,0.2,1,0.2c0,0.1,0.5,0.2,1.2,0.3c0.7,0.1,1.3,0.2,1.4,0.3c0.1,0.1,1.2,0.2,2.5,0.3c1.3,0.1,2.3,0.2,2.3,0.3
		c0,0.2,6.5,0.2,6.6,0c0-0.1,1.1-0.2,2.3-0.3c1.2-0.1,2.2-0.2,2.3-0.3c0-0.1,0.6-0.2,1.3-0.3c0.7-0.1,1.2-0.2,1.2-0.3
		c0-0.1,0.5-0.2,1-0.2s1-0.2,1-0.2c0-0.1,0.4-0.2,0.8-0.2c0.4-0.1,0.9-0.2,1-0.2c0.1-0.1,0.4-0.2,0.8-0.2c0.3-0.1,0.6-0.2,0.6-0.2
		c0-0.1,0.5-0.3,1-0.4c0.5-0.2,1-0.4,1-0.4c0-0.1,0.2-0.2,0.5-0.2c0.3-0.1,0.7-0.2,1-0.3c0.2-0.1,0.5-0.2,0.7-0.2
		c0.1,0,0.2-0.1,0.2-0.2s0.2-0.2,0.5-0.3c0.3-0.1,0.5-0.2,0.5-0.2s0.2-0.2,0.5-0.2c0.3-0.1,0.5-0.2,0.6-0.3c0.1-0.1,0.2-0.2,0.3-0.2
		c0.1,0,0.3-0.1,0.3-0.2c0-0.1,0.2-0.2,0.3-0.2c0.2,0,0.4-0.1,0.4-0.2c0.1-0.1,0.2-0.2,0.3-0.2c0.3,0,2.8-1.7,2.8-1.9
		c0-0.1,0.1-0.1,0.2-0.1c0.1,0,0.4-0.2,0.6-0.4c0.2-0.2,0.5-0.4,0.6-0.4s0.4-0.2,0.7-0.5s0.6-0.5,0.7-0.5c0.1,0,0.5-0.3,0.9-0.8
		l0.8-0.8H81h4.2l0.6,0.7c0.4,0.4,0.7,0.7,0.8,0.7s0.2,0.1,0.3,0.2c0.1,0.1,0.4,0.4,0.7,0.6c0.3,0.2,0.6,0.5,0.7,0.6
		c0.1,0.1,0.3,0.2,0.4,0.2c0.2,0,0.4,0.1,0.4,0.3c0.1,0.2,0.3,0.4,0.5,0.4c0.2,0.1,0.4,0.2,0.5,0.3c0,0.1,0.2,0.2,0.3,0.2
		s0.3,0.1,0.3,0.2c0,0.1,0.2,0.2,0.4,0.3c0.2,0.1,0.4,0.2,0.5,0.2c0.1,0.2,0.7,0.5,1.6,0.9c0.5,0.2,0.9,0.5,0.9,0.6
		c0,0.1,0.2,0.2,0.5,0.3c0.3,0.1,0.5,0.2,0.5,0.3s0.1,0.2,0.2,0.2c0.1,0,0.5,0.2,0.8,0.3c0.3,0.2,0.8,0.3,1,0.3s0.3,0.1,0.3,0.2
		c0,0.1,0.2,0.2,0.5,0.3c0.3,0.1,0.5,0.2,0.5,0.3s0.2,0.2,0.4,0.2c0.2,0,0.4,0.1,0.5,0.1c0.1,0.2,2.1,0.9,2.6,0.9
		c0.2,0,0.4,0.1,0.4,0.2s0.4,0.2,0.8,0.3c0.4,0.1,0.9,0.2,1,0.2c0.1,0.1,0.6,0.2,1.2,0.3c0.6,0.1,1,0.2,1.1,0.3
		c0,0.1,0.9,0.2,1.9,0.3c1,0.1,1.9,0.2,1.9,0.3c0.2,0.3,13.8,0.3,13.9,0c0.1-0.1,0.7-0.2,1.4-0.3c0.7-0.1,1.4-0.2,1.4-0.3
		c0-0.1,0.5-0.2,1-0.3c0.5-0.1,1-0.2,1-0.3c0-0.1,0.4-0.2,0.8-0.3c0.5-0.1,0.8-0.2,0.8-0.2s0.3-0.2,0.7-0.2c0.4-0.1,0.7-0.2,0.7-0.3
		c0-0.1,0.1-0.2,0.3-0.2c0.4,0,1.7-0.5,1.7-0.7c0-0.1,0.2-0.2,0.5-0.2c0.3-0.1,0.5-0.2,0.5-0.3c0-0.1,0.3-0.2,0.6-0.3
		c0.3-0.1,0.6-0.2,0.6-0.2c0-0.1,0.2-0.2,0.5-0.2c0.3-0.1,0.5-0.2,0.5-0.2c0-0.1,0.2-0.2,0.5-0.3c0.4-0.2,1-0.5,1.2-0.7
		c0,0,0.4-0.3,0.7-0.5c0.3-0.2,0.6-0.5,0.6-0.5c0-0.1,0.1-0.1,0.2-0.1c0.2,0,3.6-3.4,3.6-3.6c0-0.1,0.1-0.3,0.3-0.4
		c0.2-0.2,0.3-0.4,0.3-0.5c0-0.1,0.1-0.3,0.2-0.3c0.1-0.1,0.2-0.2,0.2-0.4c0-0.1,0.1-0.3,0.2-0.3c0.1,0,0.2-0.3,0.3-0.6
		c0.1-0.3,0.2-0.6,0.3-0.6c0.1,0,0.1-0.1,0.1-0.2c0-0.1,0.1-0.2,0.2-0.2c0.1,0,0.2-0.2,0.3-0.5c0.1-0.3,0.2-0.5,0.2-0.5
		c0.1,0,0.2-0.3,0.3-0.7c0.1-0.4,0.2-0.8,0.3-0.8c0.1-0.1,0.2-0.7,0.3-1.5c0.1-0.7,0.2-1.4,0.2-1.4c0.2,0,0.2-4.8,0-4.9
		c-0.1,0-0.2-0.7-0.2-1.5c-0.1-0.8-0.2-1.5-0.3-1.5c-0.1-0.1-0.2-0.4-0.3-0.7c-0.1-0.3-0.2-0.6-0.3-0.6c-0.1,0-0.2-0.1-0.2-0.3
		c0-0.1-0.2-0.4-0.4-0.7c-0.2-0.2-0.4-0.5-0.4-0.7c0-0.1-0.1-0.3-0.2-0.3c-0.1-0.1-0.2-0.2-0.2-0.3s-0.3-0.5-0.6-0.8
		c-0.3-0.3-0.6-0.6-0.6-0.7c0-0.2-0.6-0.8-0.7-0.8c-0.1,0-0.4-0.3-0.8-0.7c-0.4-0.4-0.7-0.7-0.8-0.7c-0.1,0-0.3-0.2-0.6-0.4
		c-0.3-0.2-0.6-0.5-0.8-0.5c-0.2-0.1-0.4-0.2-0.5-0.3c0-0.1-0.2-0.2-0.3-0.2s-0.3-0.1-0.3-0.2s-0.2-0.2-0.5-0.3
		c-0.3-0.1-0.5-0.2-0.5-0.3c0-0.1-0.1-0.2-0.2-0.2c-0.1,0-0.5-0.2-0.9-0.3c-0.4-0.2-0.8-0.3-1-0.3c-0.2,0-0.3-0.1-0.3-0.2
		c0-0.1-0.3-0.2-0.7-0.3c-0.4-0.1-0.7-0.2-0.7-0.2c0-0.1-0.3-0.2-0.8-0.2c-0.4-0.1-0.8-0.2-0.8-0.2s-0.4-0.2-1-0.2s-1-0.2-1-0.2
		c0-0.1-0.4-0.2-1-0.2s-1-0.2-1-0.2s-0.6-0.2-1.2-0.2c-0.7-0.1-1.2-0.2-1.2-0.3c0-0.1-0.3-0.2-0.6-0.2s-0.7-0.1-0.9-0.2
		c-0.3-0.2-1.6-0.4-4.8-0.7c-0.9-0.1-1.7-0.2-1.8-0.3c0-0.1-0.9-0.2-2-0.2c-1-0.1-1.9-0.2-1.9-0.3c0-0.1-0.9-0.2-2-0.3s-2-0.2-2-0.2
		c0-0.1-0.8-0.2-1.7-0.2c-0.9-0.1-1.7-0.2-1.7-0.3c0-0.1-0.5-0.2-1.2-0.3c-0.6-0.1-1.2-0.2-1.2-0.2c0-0.1-0.4-0.2-0.8-0.2
		c-0.5-0.1-0.8-0.2-0.8-0.3c0-0.1-0.3-0.2-0.8-0.3c-0.4-0.1-0.8-0.2-0.8-0.3c0-0.1-0.2-0.2-0.5-0.3c-0.3-0.1-0.5-0.2-0.5-0.2
		c0-0.1-0.2-0.2-0.4-0.2c-0.2-0.1-0.4-0.2-0.4-0.3c0-0.1-0.1-0.2-0.2-0.2c-0.3,0-1.5-1.3-1.9-2.1c-0.4-0.8-0.5-3.9-0.1-4.1
		c0.1,0,0.2-0.1,0.2-0.2c0-0.2,1.7-2,2-2c0.1,0,0.2-0.1,0.2-0.1c0-0.1,0.5-0.4,1.1-0.7c0.6-0.3,1.2-0.6,1.2-0.7
		c0-0.1,0.3-0.2,0.5-0.2c0.3-0.1,0.5-0.2,0.5-0.3c0-0.1,0.3-0.2,0.7-0.3c0.4-0.1,0.7-0.2,0.7-0.2c0-0.1,0.4-0.2,1-0.3
		c0.5-0.1,1-0.2,1.1-0.3c0.2-0.3,8.9-0.3,9.1,0c0.1,0.1,0.6,0.2,1.2,0.3c0.6,0.1,1.1,0.2,1.1,0.3c0,0.1,0.3,0.2,0.8,0.3
		c0.4,0.1,0.8,0.2,0.8,0.2c0,0.1,0.3,0.2,0.7,0.2c0.4,0.1,0.7,0.2,0.7,0.3c0,0.1,0.1,0.2,0.2,0.2c0.1,0,0.7,0.2,1.2,0.5
		s1.1,0.5,1.2,0.5c0.1,0,0.2,0.1,0.2,0.2c0,0.1,0.2,0.2,0.5,0.3c0.3,0.1,0.5,0.2,0.5,0.3s0.1,0.2,0.3,0.2c0.1,0,0.3,0.1,0.3,0.2
		c0.1,0.1,0.2,0.3,0.4,0.3c0.4,0.1,2.4,2.1,3.9,3.8c1.6,1.9,1.6,1.9,1.6-3.7v-4.8h11.6h11.6v42.3v42.3h6.8h6.8v-13.6
		c0-8.9-0.1-13.6-0.2-13.6c-0.1,0-0.2-1.6-0.2-4.6c0-2.5,0-4.6,0.1-4.6c0.1,0,0.8,0.7,1.6,1.5s1.6,1.5,1.7,1.5
		c0.1,0,0.4,0.2,0.6,0.4c0.2,0.2,0.5,0.4,0.6,0.4c0.1,0,0.2,0.1,0.3,0.2c0.1,0.1,0.2,0.2,0.3,0.2c0.1,0,0.3,0.1,0.4,0.2
		c0.3,0.3,0.8,0.6,1.3,0.8c0.3,0.1,0.5,0.3,0.5,0.3c0,0.1,0.3,0.2,0.6,0.2c0.3,0.1,0.6,0.2,0.6,0.3c0,0.1,0.1,0.1,0.2,0.1
		c0.1,0,0.2,0.1,0.2,0.2s0.1,0.2,0.2,0.2c0.1,0,0.5,0.2,0.9,0.3c0.4,0.2,0.8,0.3,1,0.3c0.2,0,0.4,0.1,0.4,0.2c0,0.1,0.4,0.2,0.8,0.3
		c0.4,0.1,0.7,0.2,0.7,0.2c0,0.1,0.4,0.2,0.9,0.2c0.5,0.1,0.9,0.2,1,0.3c0,0.1,0.7,0.2,1.4,0.3c0.7,0.1,1.4,0.2,1.4,0.3
		c0.2,0.2,9.3,0.2,9.4,0c0.1-0.1,0.7-0.2,1.5-0.3c0.8-0.1,1.5-0.2,1.6-0.3c0.1-0.1,0.6-0.2,1.1-0.3c0.5-0.1,1-0.2,1-0.2
		c0-0.1,0.4-0.2,0.8-0.2c0.5-0.1,0.8-0.2,0.8-0.3s0.3-0.2,0.7-0.3c0.4-0.1,0.8-0.2,0.8-0.2c0-0.1,0.3-0.2,0.7-0.2
		c0.3-0.1,0.6-0.2,0.6-0.3c0-0.1,0.2-0.2,0.4-0.2c0.2,0,0.4-0.1,0.4-0.2s0.2-0.2,0.5-0.3c0.3-0.1,0.5-0.2,0.5-0.2s0.2-0.2,0.5-0.2
		c0.3-0.1,0.5-0.2,0.5-0.2s0.2-0.2,0.5-0.2c0.3-0.1,0.5-0.2,0.5-0.2s0.2-0.2,0.5-0.2c0.3-0.1,0.5-0.2,0.5-0.3c0-0.1,0.2-0.2,0.4-0.3
		c0.2-0.1,0.4-0.2,0.5-0.3c0.1-0.1,0.2-0.2,0.3-0.2c0.1,0,0.3-0.1,0.3-0.1c0-0.1,0.3-0.3,0.7-0.5c0.4-0.2,0.7-0.5,0.7-0.5
		c0-0.1,0.1-0.1,0.2-0.1c0.2,0,0.7-0.4,2.4-2.1c1.4-1.4,2.2-2.3,2.2-2.5c0-0.1,0.1-0.3,0.3-0.4c0.2-0.2,0.3-0.4,0.3-0.5
		c0-0.1,0.2-0.3,0.3-0.5c0.2-0.1,0.3-0.3,0.3-0.5s0.1-0.3,0.2-0.3c0.1-0.1,0.3-0.3,0.3-0.5c0.1-0.2,0.2-0.4,0.3-0.4
		c0.1,0,0.2-0.2,0.3-0.5c0.1-0.3,0.2-0.5,0.2-0.5c0.1,0,0.2-0.2,0.2-0.5c0.1-0.3,0.2-0.5,0.2-0.5c0.1,0,0.2-0.2,0.2-0.5
		c0.1-0.3,0.2-0.5,0.3-0.5c0.1,0,0.2-0.3,0.3-0.7c0.1-0.4,0.2-0.7,0.2-0.7s0.2-0.3,0.2-0.6c0.1-0.3,0.2-0.6,0.2-0.6
		c0.1,0,0.2-0.3,0.2-0.7c0.1-0.4,0.2-0.8,0.3-0.8s0.2-0.5,0.3-1.1c0.1-0.5,0.2-1,0.3-1s0.1-0.2,0.1-0.5s0.1-0.5,0.2-0.5
		c0.1,0,0.2-0.6,0.3-1.3c0.1-0.7,0.2-1.4,0.3-1.5c0.3-0.3,0.3-12.5,0-12.9c-0.1-0.1-0.2-0.8-0.3-1.5c-0.1-0.7-0.2-1.3-0.3-1.3
		c-0.1,0-0.2-0.3-0.2-0.6c0-0.3-0.1-0.6-0.2-0.6c-0.1,0-0.2-0.4-0.3-0.8c-0.1-0.5-0.2-0.8-0.3-0.8c-0.1,0-0.2-0.3-0.3-0.8
		c-0.1-0.4-0.2-0.8-0.2-0.8c-0.1,0-0.2-0.3-0.2-0.6c-0.1-0.3-0.2-0.6-0.3-0.6c-0.1,0-0.2-0.3-0.3-0.7c-0.1-0.4-0.2-0.7-0.2-0.7
		c-0.1,0-0.2-0.2-0.2-0.5c-0.1-0.3-0.2-0.5-0.2-0.5c-0.1,0-0.2-0.2-0.2-0.4c-0.1-0.2-0.2-0.4-0.3-0.4c-0.1,0-0.2-0.2-0.3-0.5
		c-0.1-0.3-0.2-0.5-0.3-0.5c-0.1,0-0.2-0.1-0.2-0.3c0-0.1-0.1-0.3-0.2-0.3c-0.1,0-0.3-0.3-0.3-0.5c-0.1-0.2-0.2-0.4-0.3-0.4
		s-0.2-0.1-0.2-0.2c0-0.1-0.1-0.2-0.2-0.2c-0.1,0-0.2-0.2-0.3-0.4c-0.2-0.6-0.5-1-1-1.4c-0.2-0.2-0.4-0.4-0.4-0.5s3.5-0.1,7.8-0.1
		h7.8V81v28.9l1.5-0.1c0.8-0.1,3.9-0.1,6.8-0.1h5.2V92.8c0-9.6,0.1-16.8,0.1-16.8c0.1,0,0.2-1.7,0.3-3.7c0.1-2,0.2-3.7,0.2-3.7
		c0.1,0,0.2-0.5,0.2-1.2c0.1-0.7,0.2-1.2,0.3-1.3c0.1-0.1,0.2-0.5,0.3-1c0.1-0.5,0.2-0.9,0.3-0.9c0.1,0,0.2-0.3,0.3-0.7
		c0.1-0.4,0.2-0.8,0.3-0.8s0.2-0.3,0.2-0.6s0.2-0.6,0.2-0.6c0.1,0,0.2-0.2,0.2-0.5s0.2-0.5,0.2-0.5c0.1,0,0.3-0.3,0.4-0.6
		c0.2-0.3,0.4-0.7,0.5-0.8c0.1-0.1,0.2-0.3,0.2-0.4c0-0.1,0.2-0.4,0.5-0.6c0.3-0.2,0.5-0.5,0.5-0.6c0-0.2,1.4-1.6,1.6-1.6
		c0.1,0,0.3-0.2,0.6-0.5s0.6-0.5,0.8-0.6c0.2-0.1,0.4-0.2,0.4-0.3c0-0.1,0.1-0.2,0.2-0.2c0.1,0,0.2-0.1,0.2-0.2
		c0-0.1,0.2-0.2,0.5-0.3c0.3-0.1,0.5-0.2,0.5-0.2s0.2-0.2,0.5-0.2c0.3-0.1,0.5-0.2,0.5-0.3s0.3-0.2,0.7-0.3c0.4-0.1,0.7-0.2,0.7-0.2
		s0.4-0.2,1-0.2c0.5-0.1,1-0.2,1-0.3c0-0.1,2.7-0.2,6.3-0.2h6.3v-5.6V41h-5.7c-3.3,0-5.8,0.1-6,0.2c-0.2,0.1-0.8,0.2-1.4,0.3
		c-0.6,0.1-1.1,0.2-1.1,0.2c0,0.1-0.4,0.2-0.8,0.2c-0.5,0.1-0.9,0.2-0.9,0.2c0,0.1-0.3,0.2-0.6,0.2c-0.5,0.1-2.4,0.9-2.5,1.1
		c0,0.1-0.3,0.2-0.5,0.2c-0.2,0.1-0.5,0.2-0.6,0.4c-0.1,0.1-0.3,0.2-0.4,0.2c-0.1,0-0.3,0.1-0.3,0.2c-0.1,0.1-0.2,0.2-0.3,0.2
		c-0.1,0-0.4,0.2-0.6,0.4c-0.2,0.2-0.5,0.4-0.5,0.4c-0.2,0-3.4,3.1-3.4,3.3c0,0.1-0.2,0.4-0.5,0.7c-0.3,0.3-0.5,0.6-0.5,0.6
		c0,0.1-0.1,0.3-0.3,0.4c-0.2,0.2-0.3,0.4-0.3,0.5c0,0.1-0.1,0.3-0.2,0.3c-0.1,0.1-0.2,0.2-0.2,0.4c0,0.1-0.1,0.3-0.2,0.3
		c-0.1,0-0.2,0.2-0.3,0.4c-0.1,0.2-0.2,0.4-0.2,0.4c-0.1,0-0.3,0.3-0.5,0.8c-0.2,0.4-0.4,0.8-0.5,0.8c-0.1,0-0.2,0.2-0.4,0.5
		c-0.2,0.5-0.3,0.5-0.3,0.2c0-0.2-0.1-0.4-0.2-0.4c-0.1,0-0.2-2.8-0.2-6.9V41h-23.1C205.3,41,195.7,41.1,195.6,41.2 M46.4,52.3
		c0,0.1,0.9,0.2,1.8,0.3c0.9,0.1,1.7,0.2,1.8,0.3c0,0.1,0.4,0.2,0.9,0.3c0.4,0.1,0.8,0.2,0.8,0.3c0,0.1,0.3,0.2,0.7,0.2
		c0.4,0.1,0.7,0.2,0.7,0.3c0,0.1,0.2,0.2,0.5,0.3c0.3,0.1,0.5,0.2,0.5,0.2c0,0.1,0.6,0.4,1.2,0.7c0.6,0.3,1.1,0.6,1.1,0.7
		c0,0.1,0.1,0.1,0.2,0.1c0.1,0,0.4,0.2,0.5,0.3c0.2,0.2,0.4,0.3,0.5,0.3c0.2,0,3.6,3.4,4,4c0.2,0.3,0.5,0.8,1,1.3
		c0.1,0.1,0.2,0.3,0.3,0.5c0.1,0.2,0.2,0.4,0.3,0.4c0.1,0,0.2,0.1,0.2,0.2c0,0.1,0.1,0.2,0.2,0.2c0.1,0,0.2,0.1,0.2,0.3
		s0.1,0.3,0.2,0.3c0.1,0.1,0.3,0.3,0.3,0.6c0.1,0.3,0.2,0.5,0.2,0.5c0.1,0,0.2,0.3,0.3,0.7s0.2,0.7,0.3,0.7c0.1,0,0.2,0.2,0.2,0.5
		c0.1,0.3,0.2,0.5,0.2,0.5c0.1,0,0.2,0.3,0.2,0.8c0.1,0.4,0.2,0.8,0.3,0.8c0.1,0,0.2,0.2,0.2,0.4v0.4H49.1
		c-11.2,0-16.9,0.1-16.9,0.2c0,0.1-1.5,0.2-4.1,0.2c-2.3,0-4-0.1-3.9-0.1c0.1-0.1,0.2-0.6,0.3-1.2s0.2-1,0.3-1s0.2-0.3,0.2-0.7
		c0.1-0.4,0.2-0.8,0.3-0.8c0.1-0.1,0.2-0.2,0.2-0.4c0-0.2,0.1-0.5,0.2-0.7c0.1-0.2,0.3-0.7,0.3-1c0.1-0.3,0.2-0.5,0.3-0.5
		s0.2-0.2,0.2-0.5c0.1-0.3,0.2-0.5,0.3-0.5s0.2-0.1,0.2-0.2c0-0.2,0.6-1.1,0.8-1.3c0.1,0,0.1-0.2,0.2-0.3c0.1-0.1,0.2-0.4,0.3-0.6
		c0.3-0.4,3.5-3.6,3.6-3.6c0.1,0,0.3-0.2,0.5-0.4c0.5-0.5,0.9-0.7,1.9-1.2c0.4-0.2,0.8-0.4,0.8-0.5s0.2-0.2,0.5-0.2
		c0.3-0.1,0.5-0.2,0.5-0.3c0-0.1,0.3-0.2,0.8-0.3c0.4-0.1,0.8-0.2,0.8-0.2c0-0.1,0.4-0.2,0.8-0.3c0.4-0.1,0.8-0.2,0.9-0.3
		c0.1-0.1,0.8-0.2,1.6-0.3c0.8-0.1,1.5-0.2,1.5-0.3C42.3,52.1,46.3,52.1,46.4,52.3 M191.5,53.3c0,0.1,0.5,0.2,1.2,0.3
		s1.3,0.2,1.4,0.3c0.1,0.1,0.5,0.2,1,0.3c0.4,0.1,0.8,0.2,0.8,0.3c0,0.1,0.2,0.1,0.4,0.1s0.4,0.1,0.4,0.2c0,0.1,0.2,0.2,0.5,0.3
		c0.3,0.1,0.5,0.2,0.5,0.2s0.2,0.2,0.5,0.2c0.3,0.1,0.5,0.2,0.5,0.2s0.2,0.2,0.5,0.2c0.3,0.1,0.5,0.2,0.6,0.3
		c0.1,0.1,0.2,0.2,0.3,0.2s0.3,0.1,0.3,0.2c0,0.1,0.2,0.2,0.4,0.3c0.2,0.1,0.5,0.3,0.7,0.5c0.2,0.2,0.4,0.4,0.5,0.4
		c0.3,0,3.7,3.5,3.7,3.8c0,0.1,0.2,0.3,0.4,0.5c0.2,0.2,0.4,0.5,0.4,0.6s0.1,0.2,0.2,0.2c0.1,0,0.2,0.2,0.3,0.4
		c0.1,0.2,0.2,0.4,0.3,0.4c0.1,0,0.1,0.1,0.1,0.3c0,0.1,0.1,0.3,0.2,0.3c0.1,0.1,0.3,0.3,0.4,0.7c0.1,0.3,0.2,0.6,0.2,0.6
		c0.1,0,0.2,0.3,0.2,0.6c0.1,0.3,0.2,0.6,0.2,0.6c0.1,0,0.2,0.3,0.2,0.6c0.1,0.3,0.2,0.6,0.2,0.7c0.1,0,0.2,0.4,0.2,0.8
		c0.1,0.4,0.2,0.7,0.2,0.7c0.1,0,0.2,0.4,0.2,1c0.1,0.5,0.2,1,0.3,1.1c0.3,0.2,0.3,7.8,0,8.1c-0.1,0.1-0.2,0.7-0.3,1.3
		c-0.1,0.6-0.2,1-0.3,1c-0.1,0-0.2,0.3-0.3,0.8c-0.1,0.4-0.2,0.8-0.2,0.8c-0.1,0-0.2,0.3-0.2,0.7c-0.1,0.4-0.2,0.7-0.3,0.7
		c-0.1,0-0.2,0.3-0.3,0.6c-0.1,0.3-0.2,0.6-0.2,0.6c-0.1,0-0.2,0.2-0.2,0.4c-0.1,0.2-0.2,0.4-0.3,0.4c-0.1,0-0.2,0.2-0.3,0.5
		c-0.1,0.3-0.2,0.5-0.3,0.6c-0.1,0-0.2,0.2-0.2,0.3c0,0.1-0.1,0.3-0.1,0.3c-0.2,0.1-1.2,1.4-1.2,1.6c0,0.2-3.5,3.6-3.6,3.6
		c-0.1,0-0.3,0.2-0.5,0.3c-0.2,0.2-0.4,0.3-0.5,0.3c-0.1,0-0.2,0.1-0.3,0.1c-0.1,0.2-1.1,0.9-1.3,0.9c-0.1,0-0.2,0.1-0.2,0.2
		s-0.1,0.2-0.2,0.2c-0.1,0-0.2,0.1-0.2,0.2s-0.2,0.2-0.5,0.3c-0.3,0.1-0.5,0.2-0.5,0.3c0,0.1-0.3,0.2-0.6,0.3
		c-0.3,0.1-0.7,0.2-0.7,0.3c-0.1,0.1-0.4,0.2-0.8,0.2c-0.4,0.1-0.7,0.2-0.7,0.2c0,0.1-0.4,0.2-0.9,0.2c-0.5,0.1-0.9,0.2-1,0.3
		c-0.2,0.3-7.6,0.3-7.8,0c-0.1-0.1-0.6-0.2-1.1-0.3s-1-0.2-1-0.3c0-0.1-0.4-0.2-0.8-0.2c-0.5-0.1-0.8-0.2-0.8-0.3
		c0-0.1-0.2-0.2-0.5-0.2c-0.3-0.1-0.5-0.2-0.5-0.2s-0.2-0.2-0.5-0.2c-0.3-0.1-0.5-0.2-0.5-0.3s-0.1-0.2-0.2-0.2
		c-0.1,0-0.2-0.1-0.2-0.1c0-0.1-0.1-0.2-0.3-0.2c-0.5-0.1-1.4-0.7-2-1.2c-0.1-0.1-0.3-0.2-0.4-0.2c-0.1,0-0.4-0.3-0.7-0.6
		c-0.3-0.3-0.6-0.6-0.7-0.6c-0.2,0-1.5-1.3-1.5-1.5c0-0.1-0.3-0.4-0.7-0.8c-0.4-0.4-0.7-0.8-0.7-0.8c0,0-0.2-0.4-0.5-0.7
		c-0.3-0.3-0.5-0.7-0.5-0.8c0-0.1-0.1-0.2-0.2-0.2c-0.1,0-0.2-0.2-0.3-0.4c-0.1-0.2-0.2-0.4-0.2-0.4c-0.1,0-0.2-0.2-0.2-0.5
		S170.1,86,170,86s-0.2-0.2-0.2-0.5s-0.2-0.5-0.2-0.5s-0.2-0.2-0.3-0.5c-0.1-0.3-0.2-0.6-0.2-0.7s-0.2-0.4-0.2-0.8s-0.2-0.7-0.3-0.8
		c-0.1-0.1-0.2-0.6-0.3-1c-0.1-0.4-0.2-0.9-0.3-1.1c-0.3-0.3-0.3-8.8,0-9c0.1-0.1,0.2-0.6,0.3-1.1c0.1-0.5,0.2-1,0.3-1
		s0.2-0.3,0.2-0.7c0.1-0.4,0.2-0.7,0.3-0.8c0.1-0.1,0.2-0.3,0.3-0.6c0.1-0.3,0.2-0.5,0.3-0.5c0.1,0,0.2-0.3,0.2-0.6
		c0.1-0.3,0.2-0.6,0.3-0.6c0.1,0,0.2-0.2,0.3-0.5s0.2-0.5,0.2-0.5s0.2-0.2,0.2-0.5c0.1-0.3,0.2-0.5,0.3-0.6c0.1,0,0.2-0.2,0.2-0.3
		c0-0.1,0.2-0.4,0.4-0.5c0.2-0.2,0.4-0.4,0.4-0.5c0-0.1,0.2-0.4,0.5-0.7c0.3-0.3,0.5-0.5,0.5-0.6c0-0.2,2.1-2.3,2.2-2.3
		c0.1,0,0.3-0.2,0.6-0.5s0.6-0.5,0.7-0.5c0.1,0,0.3-0.1,0.4-0.2c0.8-0.7,1-0.8,1.2-0.8c0.1,0,0.2-0.1,0.2-0.1c0-0.1,0.2-0.2,0.4-0.3
		c0.2-0.1,0.4-0.2,0.4-0.3c0-0.1,0.2-0.2,0.5-0.3c0.3-0.1,0.5-0.2,0.5-0.2c0-0.1,0.3-0.2,0.6-0.2c0.3-0.1,0.6-0.2,0.6-0.3
		c0-0.1,0.2-0.2,0.4-0.2c0.2,0,0.4-0.1,0.4-0.1c0-0.1,0.3-0.2,0.8-0.3c0.4-0.1,0.8-0.2,0.8-0.2c0-0.1,0.6-0.2,1.2-0.3
		c0.7-0.1,1.2-0.2,1.2-0.3c0-0.1,1.1-0.2,2.6-0.2C190.3,53.2,191.5,53.2,191.5,53.3 M181.1,120.9c-0.9,0.2-1.6,0.5-1.6,0.6
		c0,0.1-0.2,0.2-0.4,0.2c-0.5,0.1-1.7,1.4-1.7,1.7c0,0.1-0.1,0.2-0.2,0.3c-0.3,0.1-0.3,4,0,4.3c0.1,0.1,0.4,0.5,0.6,0.7
		c0.2,0.2,0.4,0.4,0.5,0.4c0.1,0,0.2,0.1,0.2,0.2c0,0.1,0.1,0.2,0.2,0.2c0.1,0,0.4,0.1,0.7,0.3c0.3,0.1,0.8,0.3,1.2,0.4
		c0.4,0.1,0.7,0.2,0.7,0.2c0,0.1,0.5,0.2,1,0.2c0.6,0.1,1,0.2,1,0.3c0,0.1,0.2,0.1,0.5,0.1c0.5,0,1.5,0.5,2,1
		c0.6,0.6,0.4,1.6-0.6,2.6c-0.4,0.4-4.1,0.5-4.2,0.1c0-0.1-0.2-0.2-0.3-0.2c-0.2,0-0.9-0.7-0.9-1c0-0.1-0.1-0.2-0.2-0.2
		c-0.1,0-0.2-0.4-0.3-0.8l-0.1-0.8l-1.6,0l-1.6,0l-0.1,0.5c0,0.3,0,0.5,0.1,0.5c0.1,0,0.2,0.5,0.3,1c0.1,0.6,0.2,1.1,0.3,1.1
		c0.1,0,0.2,0.1,0.2,0.3c0,0.1,0.2,0.3,0.3,0.5c0.2,0.2,0.3,0.4,0.3,0.5c0,0.1,0.2,0.3,0.4,0.3c0.2,0.1,0.4,0.2,0.4,0.3
		c0,0.2,1,0.7,1.8,0.8c0.4,0.1,0.7,0.2,0.7,0.2c0,0.1,1,0.1,2.2,0.1s2.2-0.1,2.2-0.1c0-0.1,0.3-0.2,0.7-0.2c0.4-0.1,0.7-0.2,0.8-0.2
		s0.3-0.2,0.5-0.3c0.5-0.1,1.5-1.1,1.5-1.4c0-0.1,0.1-0.2,0.2-0.2c0.1,0,0.2-0.3,0.3-0.7c0.1-0.4,0.2-0.7,0.3-0.7s0.1-0.6,0.1-1.2
		c0-0.7-0.1-1.2-0.2-1.2c-0.1,0-0.2-0.2-0.2-0.4c0-0.5-0.5-1.2-1.8-2.3c-0.1-0.1-0.5-0.2-0.9-0.3c-0.4,0-0.7-0.1-0.7-0.2
		c0-0.1-0.4-0.2-0.8-0.2c-0.4-0.1-0.9-0.2-1-0.2c-0.1-0.1-0.5-0.2-1-0.2c-0.5-0.1-0.9-0.2-1-0.2c-0.1-0.1-0.4-0.2-0.6-0.2
		c-1.4-0.3-2-2.9-0.7-2.9c0.1,0,0.2-0.1,0.3-0.2c0-0.1,0.5-0.2,1.5-0.2c1,0,1.5,0.1,1.5,0.2c0,0.1,0.2,0.2,0.3,0.2
		c0.3,0,0.9,0.7,0.9,1c0,0.1,0.1,0.2,0.2,0.2s0.2,0.2,0.2,0.5v0.5h1.7h1.7v-0.8c0-0.5-0.1-0.8-0.1-0.8s-0.2-0.3-0.3-0.7
		c-0.1-0.4-0.2-0.7-0.3-0.7c-0.1,0-0.3-0.2-0.4-0.5c-0.2-0.3-0.5-0.5-0.7-0.6c-0.2-0.1-0.4-0.2-0.4-0.2s-0.2-0.2-0.5-0.3
		c-0.3-0.1-0.5-0.2-0.5-0.2C185.8,121.1,182.3,120.7,181.1,120.9 M212.9,121.2c-0.1,0.1-0.4,0.2-0.6,0.2c-0.9,0-1.8,1-1.9,2.1
		c0,0.5-0.1,0.9-0.2,0.9s-0.1,0.3-0.1,0.7v0.7h-0.8h-0.8v1.2v1.2h0.8h0.8v1.1c0,0.6,0.1,1.1,0.2,1.1c0.1,0,0.2,1.3,0.2,3.7v3.7h1.4
		h1.4v-4.8V128h1.1h1.1v-1.2v-1.2h-1.1h-1.1l0.1-0.9c0.1-1.1,0.1-1,1.4-1l1.1,0v-1.2v-1.2l-0.6-0.1C213.6,121,213,121,212.9,121.2
		 M308.4,121.9c-0.1,0.1-0.1,0.8-0.1,1.8v1.6h-1h-1v0.9c0,0.5,0.1,0.9,0.2,0.9s0.2,0.1,0.2,0.2c0,0.2,0.2,0.2,0.8,0.2h0.8v3.9
		c0,2.5,0.1,3.9,0.2,3.9c0.1,0,0.2,0.2,0.2,0.4c0,0.4,0.7,1.1,1.2,1.1c0.2,0,0.3,0.1,0.3,0.2c0,0.1,0.7,0.2,1.8,0.2h1.8v-1.2v-1.2
		h-1c-1.2,0-1.2,0.2-1.2-4l0-3.2h1.1h1.1v-1.2v-1.2h-1.1h-1.1v-1.8v-1.8H310C309.2,121.8,308.5,121.9,308.4,121.9 M380,123.5v1.7h-1
		h-1v1.2v1.2h1h1v3.9c0,4.9,0.1,5.3,2.1,5.4c0.6,0,1.1,0.2,1.1,0.3c0.1,0.1,0.2,0.1,0.3,0c0.1-0.1,0.6-0.2,1-0.2h0.8v-1.2
		c0-1.1,0-1.2-0.3-1.2c-0.2,0-0.3,0.1-0.3,0.2c0,0.3-0.8,0.2-1.2-0.1c-0.3-0.3-0.3-0.5-0.3-3.6v-3.3h1.1h1.1v-1.2v-1.2h-1.1h-1.1
		v-1.7v-1.7h-1.6H380V123.5 M320.4,125c-0.1,0.1-0.2,0.2-0.4,0.2c-0.4,0-1.5,0.6-1.9,1c-0.3,0.3-0.3,0.3-0.3-0.3v-0.6h-1.4H315v6v6
		h1.5h1.5v-3.4c0-1.9,0.1-3.4,0.1-3.4c0.1,0,0.2-0.3,0.2-0.6c0.2-1.1,1.2-1.8,2.6-1.9l1.2-0.1v-1.3c0-1.1-0.1-1.4-0.3-1.6
		C321.5,124.8,320.6,124.8,320.4,125 M327.2,125c0,0.1-0.3,0.2-0.8,0.2c-0.4,0-0.8,0.2-0.9,0.2c-0.1,0.1-0.3,0.2-0.5,0.3
		c-0.6,0.2-1.7,1.3-1.8,1.8c-0.1,0.3-0.2,0.5-0.2,0.5s-0.2,0.2-0.2,0.5c-0.1,0.3-0.2,0.5-0.3,0.6c-0.2,0.1-0.3,4.3,0,4.4
		c0.1,0.1,0.2,0.4,0.3,0.7c0.1,0.3,0.2,0.6,0.3,0.6c0.1,0,0.2,0.1,0.2,0.3c0,0.1,0.1,0.3,0.2,0.4c0.1,0.1,0.2,0.2,0.2,0.3
		c0,0.1,0.2,0.3,0.4,0.4c0.2,0.1,0.4,0.3,0.6,0.4c0.1,0.1,0.4,0.2,0.6,0.3c0.2,0.1,0.5,0.2,0.5,0.3c0.2,0.3,4.3,0.3,4.4,0
		c0-0.1,0.2-0.2,0.5-0.2s0.5-0.1,0.6-0.2c0.1-0.1,0.3-0.2,0.4-0.2c0.2,0,1.2-1.1,1.3-1.5c0.1-0.2,0.2-0.5,0.3-0.5
		c0.1-0.1,0.2-0.4,0.2-0.8l0.1-0.7H332c-1.5,0-1.5,0-1.6,0.4c-0.4,1.6-2.9,2.1-4.1,0.9c-0.3-0.3-0.6-0.7-0.6-0.8
		c0-0.1-0.1-0.2-0.1-0.2c-0.1,0-0.2-0.3-0.2-0.6l-0.1-0.6h4.1c3.6,0,4.1,0,4.1-0.2c0-0.1,0.1-0.2,0.2-0.2c0.1,0,0.2-0.3,0.2-0.6
		c0-0.3-0.1-0.6-0.1-0.6s-0.2-0.4-0.2-1c-0.1-1-0.5-2-0.8-2c-0.1,0-0.2-0.1-0.2-0.3c0-0.3-1.1-1.4-1.5-1.5c-0.2-0.1-0.4-0.2-0.5-0.3
		c-0.1-0.1-0.5-0.2-1-0.2c-0.5,0-0.9-0.1-0.9-0.2c0-0.1-0.3-0.1-0.8-0.1C327.5,124.8,327.2,124.9,327.2,125 M340.2,125
		c0,0.1-0.3,0.2-0.6,0.2c-0.3,0.1-0.7,0.2-0.8,0.3c-0.9,0.8-0.9,0.8-0.9,0.2c0-0.4,0-0.4-1.3-0.4h-1.3v5.8v5.8h1.5h1.5l0.1-4.1
		c0-3.6,0.1-4.1,0.3-4.3c0.2-0.2,0.3-0.4,0.3-0.4c0-0.1,0.1-0.2,0.2-0.2c0.1,0,0.2-0.1,0.2-0.2c0-0.1,0.1-0.2,0.2-0.2
		c0.1,0,0.2-0.1,0.2-0.2s0.3-0.2,0.6-0.2c0.3,0,0.6,0.1,0.6,0.2s0.1,0.2,0.2,0.2c0.1,0,0.2,0.1,0.2,0.2c0,0.1,0.1,0.3,0.3,0.4
		c0.3,0.3,0.3,0.8,0.4,4.5l0.1,4.2h1.5h1.5l0-4.1c0-3.2,0-4.1,0.2-4.2c0.1,0,0.2-0.2,0.2-0.3c0-0.3,0.6-0.8,0.9-0.8
		c0.1,0,0.3-0.1,0.3-0.2c0.2-0.3,1.1-0.2,1.6,0.3l0.5,0.5l0,4.3l0,4.3h1.6h1.6v-4.8c0-3.1-0.1-4.8-0.2-4.8c-0.1,0-0.2-0.2-0.2-0.3
		c0-0.8-1.2-2-2.1-2c-0.2,0-0.4-0.1-0.4-0.2c0-0.1-0.5-0.2-1.2-0.2c-0.7,0-1.2,0.1-1.2,0.2c0,0.1-0.2,0.2-0.5,0.2
		c-0.4,0-1,0.3-1.7,1c-0.3,0.3-0.3,0.3-0.9-0.3c-0.3-0.3-0.7-0.5-1.2-0.6c-0.4,0-0.7-0.2-0.7-0.2c0-0.1-0.4-0.1-1-0.1
		C340.6,124.8,340.2,124.9,340.2,125 M358.2,125c0,0.1-0.3,0.2-0.7,0.2c-0.4,0.1-0.7,0.2-0.8,0.3c0,0.1-0.1,0.2-0.2,0.2
		c-0.2,0-1.8,1.5-1.8,1.8c0,0.1-0.1,0.2-0.2,0.2c-0.1,0-0.2,0.3-0.3,0.6c-0.1,0.3-0.2,0.7-0.3,0.7c-0.2,0.2-0.2,4.3,0,4.4
		c0.1,0.1,0.2,0.4,0.3,0.7c0.1,0.3,0.2,0.6,0.3,0.6c0.1,0,0.2,0.1,0.2,0.2c0,0.3,1.3,1.5,1.6,1.5c0.1,0,0.3,0.1,0.3,0.2
		c0.1,0.1,0.3,0.2,0.5,0.2s0.4,0.1,0.4,0.2c0,0.1,0.8,0.2,2,0.2c1.1,0,2-0.1,2-0.1s0.3-0.2,0.7-0.3c0.4-0.1,0.7-0.2,0.7-0.3
		c0-0.1,0.1-0.2,0.2-0.2c0.3,0,1-0.7,1-1c0-0.1,0.1-0.2,0.2-0.2c0.1,0,0.2-0.2,0.3-0.4c0.1-0.2,0.2-0.4,0.3-0.5
		c0.1,0,0.2-0.4,0.2-0.8l0.1-0.7h-1.5c-1.5,0-1.5,0-1.6,0.4c-0.1,0.5-0.6,1.1-0.9,1.1c-0.1,0-0.2,0.1-0.3,0.2
		c-0.1,0.3-2.2,0.3-2.3,0c0-0.1-0.2-0.2-0.3-0.2c-0.4,0-1.1-0.8-1.2-1.5c0-0.4-0.2-0.7-0.2-0.7c-0.1,0-0.1-0.1-0.1-0.2
		c0-0.1,1.5-0.2,4.2-0.2c3.6,0,4.2,0,4.2-0.2c0-0.1,0.1-0.2,0.2-0.2c0.1,0,0.2-0.2,0.2-0.5s-0.1-0.5-0.1-0.5c-0.1,0-0.2-0.5-0.2-1.1
		s-0.2-1.2-0.3-1.2c-0.1-0.1-0.2-0.2-0.3-0.4c-0.3-1-2.4-2.6-3.3-2.6c-0.3,0-0.5-0.1-0.5-0.2c0-0.1-0.5-0.2-1.2-0.2
		C358.7,124.8,358.2,124.9,358.2,125 M371.5,125c0,0.1-0.1,0.2-0.2,0.2c-0.3,0-1.6,0.7-1.6,0.9c0,0.1-0.1,0.1-0.2,0.1
		s-0.2-0.2-0.2-0.5v-0.5H368h-1.3v5.9v5.9h1.5h1.5l0.1-4.1c0-3.6,0.1-4.1,0.3-4.3c0.2-0.2,0.3-0.4,0.3-0.4c0-0.1,0.1-0.2,0.2-0.2
		c0.1,0,0.2-0.1,0.2-0.2c0-0.1,0.1-0.2,0.2-0.2c0.1,0,0.2-0.1,0.2-0.2s0.3-0.2,0.8-0.2c0.8,0,1.6,0.6,1.6,1.1c0,0.1,0.1,0.2,0.2,0.2
		c0.1,0,0.2,1.5,0.2,4.2v4.2h1.5h1.5v-4.9c0-2.8-0.1-4.9-0.1-4.9c-0.1,0-0.2-0.2-0.3-0.4c-0.1-0.5-0.6-1.1-0.9-1.1
		c-0.1,0-0.2-0.1-0.2-0.2c0-0.1-0.3-0.2-0.7-0.3c-0.4-0.1-0.7-0.2-0.7-0.3c0-0.1-0.6-0.1-1.3-0.1C372.1,124.8,371.5,124.9,371.5,125
		 M220.1,125.3c-0.3,0-0.6,0.1-0.6,0.2c0,0.1-0.2,0.2-0.4,0.2c-0.2,0.1-0.5,0.2-0.7,0.3c-0.7,0.6-1.2,1.1-1.2,1.2
		c0,0.1-0.1,0.2-0.2,0.3c-0.1,0.1-0.2,0.2-0.2,0.3c0,0.1-0.1,0.3-0.2,0.3c-0.1,0-0.2,0.4-0.3,0.8s-0.2,0.7-0.2,0.7
		c-0.2,0-0.2,3.5,0,3.6c0.1,0.1,0.2,0.3,0.2,0.5c0,0.5,0.6,1.7,0.8,1.7c0.1,0,0.2,0.1,0.2,0.2c0,0.3,0.5,0.8,0.8,0.8
		c0.1,0,0.2,0.1,0.2,0.2c0,0.1,0.2,0.2,0.4,0.3c0.2,0.1,0.4,0.2,0.4,0.2s0.4,0.2,0.8,0.3c0.5,0.1,0.9,0.2,0.9,0.3
		c0.1,0.2,2.2,0.2,2.2,0c0-0.1,0.4-0.2,0.9-0.3c0.5-0.1,0.9-0.2,0.9-0.3c0-0.1,0.1-0.2,0.3-0.2c0.1,0,0.3-0.1,0.4-0.2
		c0.1-0.1,0.2-0.2,0.3-0.2c0.3,0,1.1-0.8,1.2-1.3c0.1-0.2,0.2-0.4,0.2-0.4c0.1,0,0.2-0.3,0.3-0.7c0.1-0.4,0.2-0.7,0.3-0.7
		s0.1-0.9,0.1-2s-0.1-2-0.1-2s-0.2-0.3-0.3-0.7c-0.1-0.4-0.2-0.7-0.3-0.7c-0.1,0-0.2-0.2-0.3-0.4C226.5,126,223.3,124.9,220.1,125.3
		 M234.3,125.3c-0.1,0.1-0.3,0.1-0.3,0.2s-0.4,0.2-0.7,0.4c-0.3,0.2-0.7,0.5-0.8,0.8c-0.1,0.4-0.2,0.3-0.2-0.4l0-0.9l-1.5,0l-1.5,0
		l0,2.8c0,1.8,0,2.8,0.1,2.8c0.1,0,0.2,1.1,0.2,3.2v3.2h1.3h1.3v-2.9c0-1.6,0.1-2.9,0.1-2.9s0.2-0.4,0.2-0.9c0-0.5,0.2-0.9,0.3-0.9
		c0.1,0,0.2-0.1,0.2-0.2c0-0.6,1.4-1.3,2.5-1.3h1v-1.5v-1.5l-1,0C235.1,125.2,234.5,125.2,234.3,125.3 M241.9,125.3
		c-0.4,0.1-1.6,0.9-1.6,1.1c0,0.1-0.1,0.1-0.2,0.1c-0.1,0-0.2-0.3-0.2-0.6v-0.6l-1.4,0l-1.4,0l0,6l0,6h1.6h1.6l0.1-4.1
		c0-3.6,0.1-4.1,0.3-4.3c0.2-0.2,0.3-0.4,0.3-0.5c0-0.8,2-1,2.7-0.3l0.5,0.5l0.1,4.3l0.1,4.3h1.5h1.5v-4.1c0-2.4,0.1-4.1,0.2-4.1
		c0.1,0,0.2-0.2,0.3-0.5c0.1-0.3,0.2-0.5,0.5-0.6c0.2-0.1,0.4-0.2,0.4-0.2c0-0.3,1.3-0.2,1.8,0.1c0.7,0.4,0.7,0.4,0.7,5.2l0,4.2h1.6
		h1.6v-4.9c0-3.2-0.1-4.9-0.2-4.9c-0.1,0-0.2-0.2-0.2-0.3c0-0.4-1-1.5-1.3-1.5c-0.1,0-0.2-0.1-0.2-0.2c0-0.2-0.6-0.2-2.1-0.2
		c-1.5,0-2.1,0.1-2.1,0.2c0,0.1-0.2,0.2-0.3,0.2c-0.1,0-0.4,0.2-0.7,0.5l-0.5,0.5l-0.5-0.5c-0.3-0.3-0.6-0.5-0.7-0.5
		c-0.1,0-0.3-0.1-0.3-0.2C245.2,125.3,242.5,125.1,241.9,125.3 M259.8,125.3c-0.3,0-0.5,0.1-0.5,0.2c0,0.1-0.2,0.2-0.4,0.2
		c-0.5,0.1-1.9,1.5-2,2c-0.1,0.2-0.2,0.3-0.2,0.3s-0.2,0.3-0.3,0.6c-0.1,0.3-0.2,0.6-0.3,0.7c-0.2,0.1-0.2,4.4,0,4.4
		c0.1,0,0.2,0.3,0.3,0.7c0.1,0.4,0.2,0.7,0.2,0.7c0.1,0,0.3,0.3,0.5,0.7c0.2,0.4,0.5,0.7,0.7,0.8c0.2,0.1,0.3,0.2,0.3,0.2
		c0,0.1,0.2,0.2,0.5,0.3c0.3,0.1,0.5,0.2,0.6,0.3c0.4,0.6,6,0.1,6-0.6c0-0.1,0.1-0.2,0.2-0.2c0.3,0,1.1-0.8,1.2-1.2
		c0.1-0.2,0.2-0.4,0.3-0.4c0.1-0.1,0.2-0.4,0.2-0.8l0.1-0.7h-1.5c-1.5,0-1.5,0-1.6,0.4c-0.3,1-2.9,1.8-3.6,1
		c-0.1-0.1-0.4-0.3-0.5-0.3c-0.2-0.1-0.3-0.2-0.3-0.4c0-0.1-0.1-0.3-0.2-0.3c-0.1,0-0.2-0.4-0.3-0.8l-0.1-0.8h4.2h4.2v-1
		c0-0.6-0.1-1-0.1-1c-0.1,0-0.2-0.3-0.2-0.8c0-0.4-0.2-0.8-0.2-0.9c-0.1-0.1-0.2-0.3-0.3-0.5c-0.2-0.7-1.6-2.1-2.2-2.3
		c-0.2-0.1-0.5-0.2-0.5-0.3C263.7,125.3,260.6,125.1,259.8,125.3 M273.4,125.3c-0.2,0-0.7,0.4-1.1,0.7c-0.8,0.8-0.8,0.8-0.8,0v-0.7
		h-1.3h-1.3v6v6h1.5h1.5l0.1-3.8c0.1-3.4,0.1-3.8,0.3-3.9c0.2-0.1,0.3-0.2,0.3-0.3c0-0.2,0.5-0.8,0.8-0.8c0.1,0,0.2-0.1,0.3-0.2
		c0-0.1,0.5-0.2,1.2-0.2h1.1v-1.5v-1.5l-1,0C274.2,125.2,273.6,125.2,273.4,125.3 M285.4,125.3c-0.3,0-0.5,0.1-0.5,0.2
		c0,0.1-0.1,0.2-0.2,0.2c-0.3,0-1.6,1.3-1.6,1.6c0,0.1-0.1,0.3-0.2,0.3c-0.1,0-0.2,0.5-0.3,1l-0.1,0.9h1.5c1.4,0,1.5,0,1.5-0.4
		c0-1.3,2.9-2.1,3.9-1c0.6,0.6,0.4,1.6-0.4,1.6c-0.1,0-0.2,0.1-0.2,0.2c0,0.1-0.8,0.2-1.7,0.3c-0.9,0.1-1.7,0.2-1.7,0.2
		c0,0.1-0.4,0.2-0.8,0.2c-0.5,0.1-0.8,0.2-0.8,0.3c0,0.1-0.1,0.2-0.2,0.2c-0.3,0-1.1,0.8-1.1,1.1c0,0.1-0.1,0.3-0.2,0.3
		c-0.3,0.1-0.3,3,0,3.1c0.1,0,0.2,0.2,0.2,0.3c0,0.1,0.2,0.5,0.5,0.7s0.6,0.5,0.7,0.5c0.1,0,0.3,0.1,0.3,0.2c0.1,0.3,4.6,0.3,4.8,0
		c0.1-0.1,0.3-0.2,0.6-0.3c0.3-0.1,0.5-0.2,0.5-0.3c0-0.3,0.3-0.1,0.4,0.3c0.1,0.5,0.5,0.6,1.8,0.6c1.7,0,1.8,0,1.8-1.3V135h-0.5
		h-0.5l-0.1-1.5c-0.1-0.8-0.1-2.6-0.1-3.9c0-1.5-0.1-2.4-0.2-2.4c-0.1,0-0.2-0.1-0.2-0.2C292.3,125.7,288.6,124.8,285.4,125.3
		 M194.3,125.5c0,0.1-0.2,0.2-0.4,0.2c-0.2,0-0.5,0.1-0.5,0.2c0,0.1-0.3,0.3-0.5,0.3c-0.2,0.1-0.4,0.2-0.4,0.3s-0.2,0.4-0.5,0.7
		s-0.5,0.6-0.5,0.7c0,0.1-0.1,0.2-0.1,0.2c-0.1,0-0.2,0.2-0.3,0.5c-0.1,0.3-0.2,0.5-0.3,0.6c-0.3,0.2-0.3,4.8,0,5.1
		c0.1,0.1,0.2,0.4,0.3,0.7c0.1,0.3,0.2,0.5,0.3,0.5c0.1,0,0.2,0.1,0.2,0.2c0,0.2,1.3,1.5,1.6,1.5c0.1,0,0.2,0.1,0.3,0.2
		c0,0.1,0.4,0.2,0.8,0.3c0.4,0.1,0.7,0.2,0.7,0.2c0,0.2,2.4,0.2,2.8,0c0.2-0.1,0.6-0.2,0.9-0.3c0.3-0.1,0.6-0.2,0.6-0.3
		c0-0.1,0.1-0.2,0.3-0.2s0.3-0.1,0.3-0.2c0.1-0.1,0.3-0.3,0.5-0.3c0.2-0.1,0.4-0.3,0.5-0.5c0.1-0.2,0.2-0.4,0.2-0.4
		c0.1,0,0.2-0.2,0.2-0.5s0.2-0.5,0.3-0.5c0.1,0,0.2-0.2,0.2-0.5v-0.5h-1.3c-1.4,0-1.8,0.2-2.1,1c-0.1,0.2-0.3,0.4-0.6,0.4
		c-0.3,0.1-0.5,0.2-0.5,0.3c0,0.1-0.4,0.2-0.8,0.2c-0.5,0-0.8-0.1-0.8-0.1c0-0.1-0.2-0.2-0.4-0.3c-0.5-0.1-1-0.6-1.2-1.2
		c-0.1-0.2-0.2-0.4-0.3-0.4c-0.1,0-0.1-0.2-0.1-0.4v-0.4h4.2h4.2l-0.1-1.7c0-1.1-0.1-1.7-0.3-1.8c-0.1,0-0.2-0.2-0.2-0.5
		c0-0.2-0.1-0.5-0.2-0.5c-0.1-0.1-0.2-0.2-0.2-0.3c0-0.4-1.7-1.9-2.2-2c-0.3-0.1-0.5-0.2-0.6-0.2
		C197.9,125.3,194.3,125.3,194.3,125.5 M295,130.3c0,3.4,0.1,5,0.2,5c0.1,0.1,0.2,0.3,0.3,0.5c0.1,0.5,0.9,1.2,1.2,1.2
		c0.1,0,0.2,0.1,0.3,0.2c0.1,0.3,4.2,0.3,4.2,0c0-0.1,0.2-0.2,0.3-0.2c0.1,0,0.3-0.1,0.3-0.2c0.2-0.4,0.6-0.3,0.6,0.2
		c0,0.4,0,0.4,1.5,0.4c1.9,0,1.7,0.7,1.6-6.3l0-5.6l-1.5,0l-1.5,0l-0.1,4.1l-0.1,4.1l-0.7,0.7c-0.9,0.9-2.5,1-3.2,0.2l-0.4-0.4
		l-0.1-4.4l-0.1-4.4h-1.5H295L295,130.3 M328.5,127.5c0,0.1,0.2,0.2,0.5,0.3c0.6,0.3,1.3,1.1,1.4,1.7l0.1,0.5h-2.6h-2.6v-0.4
		c0-0.2,0.1-0.4,0.2-0.4s0.2-0.1,0.2-0.2c0-0.3,1-1.2,1.5-1.3c0.2-0.1,0.4-0.2,0.4-0.2s0.2-0.1,0.5-0.1S328.5,127.4,328.5,127.5
		 M360.2,127.5c0,0.1,0.1,0.2,0.2,0.2c0.4,0,1.4,1.1,1.5,1.7l0.1,0.6h-2.6h-2.6l0.2-0.6c0.2-0.6,1.1-1.7,1.5-1.7
		c0.1,0,0.2-0.1,0.2-0.2s0.3-0.2,0.8-0.2C359.8,127.3,360.2,127.4,360.2,127.5 M196.7,127.8c0,0.1,0.1,0.2,0.3,0.2
		c0.5,0,1.7,1.3,1.7,1.9c0,0.2-0.4,0.3-2.6,0.3c-2.2,0-2.6,0-2.6-0.2c0-0.1,0.1-0.2,0.2-0.2c0.1,0,0.2-0.1,0.2-0.2
		c0-0.4,1.2-1.4,1.6-1.4c0.2,0,0.4-0.1,0.4-0.2c0-0.1,0.2-0.2,0.4-0.2S196.7,127.7,196.7,127.8 M222.9,128c0.8,0.4,1.5,1.1,1.6,1.7
		c0.1,0.3,0.2,0.5,0.2,0.5c0.1,0,0.1,0.6,0.1,1.3s-0.1,1.3-0.1,1.3c-0.1,0-0.2,0.2-0.2,0.5c-0.1,0.6-0.9,1.4-1.5,1.6
		c-0.2,0.1-0.4,0.2-0.4,0.3c0,0.2-1,0.2-1.1,0c0-0.1-0.3-0.2-0.6-0.2c-0.6-0.1-1.1-0.6-1.3-1.1c-0.1-0.2-0.2-0.4-0.3-0.5
		c-0.3-0.2-0.2-3.5,0.1-3.9c0.2-0.2,0.3-0.4,0.3-0.4c0-0.3,0.6-0.8,1.1-0.9c0.2-0.1,0.4-0.2,0.4-0.3
		C221.2,127.6,222.3,127.7,222.9,128 M262.8,128.1c0.8,0.5,1.2,1,1.3,1.6l0.1,0.5h-2.5h-2.5l0.1-0.5c0.1-0.7,0.6-1.3,1.1-1.5
		c0.3-0.1,0.5-0.3,0.5-0.3C260.8,127.5,262.2,127.7,262.8,128.1 M289.8,132.7c-0.1,1-0.5,1.8-0.9,1.8c-0.1,0-0.2,0.1-0.3,0.2
		c-0.2,0.5-2.5,0.4-3.1-0.2c-0.3-0.3-0.5-0.6-0.5-0.6c0-0.1,0.2-0.3,0.3-0.6c0.1-0.4,0.4-0.6,0.7-0.6c0.3-0.1,0.5-0.2,0.5-0.2
		c0-0.1,0.7-0.2,1.5-0.3c0.8-0.1,1.5-0.2,1.5-0.3s0.1-0.1,0.2-0.1C289.8,131.7,289.9,132,289.8,132.7 M0,0 M0,0"/>
</g>
</svg>
