<?xml version="1.0" encoding="utf-8"?>
<!-- Generator: Adobe Illustrator 22.0.0, SVG Export Plug-In . SVG Version: 6.00 Build 0)  -->
<svg version="1.1" id="svg" xmlns="http://www.w3.org/2000/svg" xmlns:xlink="http://www.w3.org/1999/xlink" x="0px" y="0px"
	 viewBox="0 0 54 41.2" style="enable-background:new 0 0 54 41.2;" xml:space="preserve">
<style type="text/css">
	.st0{fill:#CC041C;}
</style>
<path id="path1" class="st0" d="M1.5,21.3c0.1,19.4-0.1,17.9,1.4,17.2c0.4-0.2,1.3-0.5,2.1-0.7c0.8-0.2,1.6-0.5,1.8-0.6
	c0.2-0.1,0.6-0.2,1-0.3c0.4-0.1,0.8-0.2,0.9-0.3c0.3-0.2,2.2-0.8,2.5-0.8c0.2,0,0.6-0.1,0.9-0.3c0.3-0.2,0.7-0.3,0.9-0.3
	c0.2,0,0.4-0.1,0.4-0.2c0-0.1,0.4-0.2,0.9-0.3c0.5-0.1,0.9-0.2,0.9-0.3c0-0.1,0.4-0.2,0.9-0.3c0.5-0.1,0.9-0.2,0.9-0.3
	c0-0.1,0.4-0.2,0.9-0.3c0.5-0.1,0.9-0.2,0.9-0.3s0.4-0.2,0.9-0.3c0.5-0.1,0.9-0.2,0.9-0.3s0.4-0.2,0.9-0.3c0.5-0.1,0.9-0.2,1-0.3
	c0.1-0.1,0.5-0.2,0.9-0.3c0.4-0.1,0.8-0.2,0.9-0.3c0.1-0.1,0.4-0.2,0.8-0.3c0.4-0.1,0.9-0.2,1-0.3c0.6-0.3,2.8-1,3.2-1
	c0.2,0,0.4-0.1,0.4-0.2c0-0.1,0.2-0.2,0.5-0.2c0.3,0,0.5-0.1,0.5-0.2c0-0.1,0.4-0.2,0.9-0.3c0.5-0.1,0.9-0.2,0.9-0.3
	c0-0.1,0.4-0.2,0.9-0.3c0.5-0.1,0.9-0.2,0.9-0.3c0-0.1,0.4-0.2,0.9-0.3c0.5-0.1,0.9-0.2,0.9-0.3c0-0.1,0.4-0.2,0.9-0.3
	c0.5-0.1,0.9-0.2,0.9-0.3c0-0.1,0.4-0.2,0.9-0.3c0.5-0.1,0.9-0.2,0.9-0.3c0-0.1,0.4-0.2,0.9-0.3c0.5-0.1,0.9-0.2,1-0.3
	c0.1-0.1,0.5-0.2,0.9-0.3c0.4-0.1,0.8-0.2,0.9-0.3c0.1-0.1,0.5-0.2,1-0.3c0.5-0.1,0.9-0.2,0.9-0.3c0-0.1,0.4-0.2,0.9-0.3
	c0.5-0.1,0.9-0.2,0.9-0.3c0-0.1,0.4-0.2,0.9-0.3c0.5-0.1,0.9-0.2,0.9-0.3c0-0.1,0.2-0.2,0.5-0.2c0.3,0,0.5-0.1,0.5-0.2
	c0-0.1,0.4-0.2,0.9-0.3c0.5-0.1,0.9-0.2,0.9-0.3s0.2-0.2,0.4-0.2c0.2,0,0.4-0.2,0.4-0.4c0-0.2-0.2-0.3-0.4-0.4
	c-0.2,0-0.4-0.1-0.4-0.2S51,21,50.7,20.9c-0.4-0.1-0.9-0.3-1.2-0.4c-0.3-0.2-0.8-0.3-1-0.3c-0.2,0-0.4-0.1-0.4-0.2
	c0-0.1-0.4-0.2-0.9-0.3c-0.5-0.1-0.9-0.2-0.9-0.3c0-0.1-0.4-0.2-0.8-0.3c-0.4-0.1-0.8-0.2-0.8-0.3c0-0.1-0.4-0.2-0.9-0.3
	c-0.5-0.1-0.9-0.2-0.9-0.3S42.4,18,42,17.9c-0.5-0.1-0.9-0.2-0.9-0.3c0-0.1-0.4-0.2-0.8-0.3c-0.4-0.1-0.8-0.2-0.8-0.3
	c0-0.1-0.4-0.2-0.9-0.3c-0.5-0.1-0.9-0.2-0.9-0.3s-0.4-0.2-0.9-0.3c-0.5-0.1-0.9-0.2-0.9-0.3c0-0.2-0.8-0.5-2.6-1
	c-0.8-0.3-1.6-0.5-1.7-0.6c-0.1-0.1-0.3-0.2-0.5-0.2c-0.2,0-0.6-0.1-0.9-0.3c-0.3-0.2-0.9-0.3-1.2-0.4c-0.4-0.1-0.7-0.2-0.8-0.3
	c-0.1-0.1-0.5-0.2-0.9-0.3c-0.4-0.1-0.8-0.2-0.8-0.3c0-0.1-0.2-0.2-0.4-0.2c-0.2,0-0.8-0.2-1.2-0.4c-0.4-0.2-1-0.4-1.2-0.4
	c-0.2,0-0.4-0.1-0.4-0.2c0-0.1-0.4-0.2-0.9-0.3c-0.5-0.1-0.9-0.2-0.9-0.3c0-0.1-0.4-0.2-0.8-0.3c-0.4-0.1-0.8-0.2-0.8-0.3
	c0-0.1-0.4-0.2-0.9-0.3c-0.5-0.1-0.9-0.2-0.9-0.3c0-0.1-0.6-0.3-1.2-0.5c-0.7-0.2-1.5-0.5-1.7-0.6c-0.3-0.1-0.6-0.3-0.8-0.3
	c-0.2,0-0.4-0.1-0.4-0.2c-0.1-0.1-0.5-0.2-0.9-0.3c-0.4-0.1-0.8-0.2-0.8-0.3s-0.4-0.2-0.8-0.3C11,7,10.6,6.9,10.6,6.8
	s-0.4-0.2-0.9-0.3c-0.5-0.1-0.9-0.2-1-0.3C8.7,6.1,8.3,5.9,7.8,5.9C7.4,5.8,7,5.7,7,5.6c0-0.1-0.4-0.2-0.8-0.3
	C5.8,5.2,5.5,5.1,5.5,5c0-0.1-0.4-0.2-0.8-0.3C4.1,4.6,3.7,4.4,3.7,4.4C3.6,4.3,3.1,4.1,2.5,4.1l-1-0.1L1.5,21.3"/>
</svg>
